<?xml version="1.0" encoding="UTF-8" standalone="no"?>
<!DOCTYPE svg PUBLIC "-//W3C//DTD SVG 1.1//EN"
 "http://www.w3.org/Graphics/SVG/1.1/DTD/svg11.dtd">
<!-- Generated by graphviz version 2.43.0 (0)
 -->
<!-- Title: G Pages: 1 -->
<svg width="1385pt" height="674pt"
 viewBox="0.00 0.00 1385.35 673.60" xmlns="http://www.w3.org/2000/svg" xmlns:xlink="http://www.w3.org/1999/xlink">
<g id="graph0" class="graph" transform="scale(1 1) rotate(0) translate(28.8 644.8)">
<title>G</title>
<polygon fill="white" stroke="transparent" points="-28.8,28.8 -28.8,-644.8 1356.55,-644.8 1356.55,28.8 -28.8,28.8"/>
<text text-anchor="start" x="244.87" y="-598.6" font-family="DejaVu Sans" font-weight="bold" font-size="18.00">Diagrama de clases – Pantallas de gestión de usuarios (RF&#45;01, RF&#45;02, RF&#45;04, RF&#45;11)</text>
<g id="clust1" class="cluster">
<title>cluster_pantallas</title>
<path fill="white" stroke="#888888" d="M20,-252C20,-252 1288,-252 1288,-252 1294,-252 1300,-258 1300,-264 1300,-264 1300,-568 1300,-568 1300,-574 1294,-580 1288,-580 1288,-580 20,-580 20,-580 14,-580 8,-574 8,-568 8,-568 8,-264 8,-264 8,-258 14,-252 20,-252"/>
<text text-anchor="start" x="16" y="-567.4" font-family="DejaVu Sans" font-style="italic" font-size="12.00">paquete pantallas</text>
</g>
<!-- PantallaLogin -->
<g id="node1" class="node">
<title>PantallaLogin</title>
<polygon fill="#ffffff" stroke="transparent" points="358.5,-357.5 358.5,-453.5 605.5,-453.5 605.5,-357.5 358.5,-357.5"/>
<text text-anchor="start" x="444" y="-439.5" font-family="DejaVu Sans" font-weight="bold" font-size="10.00">PantallaLogin</text>
<text text-anchor="start" x="364" y="-417.5" font-family="DejaVu Sans" font-size="10.00">&#45; tienda: Tienda</text>
<text text-anchor="start" x="364" y="-406.5" font-family="DejaVu Sans" font-size="10.00">&#45; txtCorreo: JTextField</text>
<text text-anchor="start" x="364" y="-395.5" font-family="DejaVu Sans" font-size="10.00">&#45; txtPass: JPasswordField</text>
<text text-anchor="start" x="364" y="-376.5" font-family="DejaVu Sans" font-size="10.00">+ PantallaLogin(tienda: Tienda, nav: Navegador)</text>
<text text-anchor="start" x="364" y="-365.5" font-family="DejaVu Sans" font-size="10.00">+ refrescar(): void</text>
<polygon fill="#000000" stroke="#000000" points="359,-429.5 359,-429.5 606,-429.5 606,-429.5 359,-429.5"/>
<polygon fill="#000000" stroke="#000000" points="359,-388.5 359,-388.5 606,-388.5 606,-388.5 359,-388.5"/>
<polygon fill="none" stroke="#000000" points="358.5,-357.5 358.5,-453.5 605.5,-453.5 605.5,-357.5 358.5,-357.5"/>
</g>
<!-- Navegador -->
<g id="node5" class="node">
<title>Navegador</title>
<polygon fill="#ffffff" stroke="transparent" points="689.5,-107 689.5,-178 814.5,-178 814.5,-107 689.5,-107"/>
<text text-anchor="start" x="727" y="-164.3" font-family="DejaVu Sans" font-size="9.00">«interface»</text>
<text text-anchor="start" x="721" y="-154.5" font-family="DejaVu Sans" font-weight="bold" font-size="10.00">Navegador</text>
<text text-anchor="start" x="750.5" y="-133.5" font-family="DejaVu Sans" font-size="10.00"> </text>
<text text-anchor="start" x="695" y="-114.5" font-family="DejaVu Sans" font-size="10.00">+ irA(vista: Vista): void</text>
<polygon fill="#000000" stroke="#000000" points="690,-145.5 690,-145.5 815,-145.5 815,-145.5 690,-145.5"/>
<polygon fill="#000000" stroke="#000000" points="690,-126.5 690,-126.5 815,-126.5 815,-126.5 690,-126.5"/>
<polygon fill="none" stroke="#000000" points="689.5,-107 689.5,-178 814.5,-178 814.5,-107 689.5,-107"/>
</g>
<!-- PantallaLogin&#45;&gt;Navegador -->
<g id="edge3" class="edge">
<title>PantallaLogin&#45;&gt;Navegador</title>
<path fill="none" stroke="#000000" stroke-dasharray="5,2" d="M524.66,-357.34C552.97,-326.62 591.34,-286.07 627,-252 651.08,-228.99 678.97,-204.58 702.3,-184.75"/>
<polygon fill="#000000" stroke="#000000" points="710.02,-178.2 705.3,-188.1 706.2,-181.44 702.39,-184.67 702.39,-184.67 702.39,-184.67 706.2,-181.44 699.48,-181.23 710.02,-178.2 710.02,-178.2"/>
</g>
<!-- Refrescable -->
<g id="node6" class="node">
<title>Refrescable</title>
<polygon fill="#ffffff" stroke="transparent" points="546,-107 546,-178 646,-178 646,-107 546,-107"/>
<text text-anchor="start" x="570.5" y="-164.3" font-family="DejaVu Sans" font-size="9.00">«interface»</text>
<text text-anchor="start" x="562" y="-154.5" font-family="DejaVu Sans" font-weight="bold" font-size="10.00">Refrescable</text>
<text text-anchor="start" x="594" y="-133.5" font-family="DejaVu Sans" font-size="10.00"> </text>
<text text-anchor="start" x="551" y="-114.5" font-family="DejaVu Sans" font-size="10.00">+ refrescar(): void</text>
<polygon fill="#000000" stroke="#000000" points="546,-145.5 546,-145.5 646,-145.5 646,-145.5 546,-145.5"/>
<polygon fill="#000000" stroke="#000000" points="546,-126.5 546,-126.5 646,-126.5 646,-126.5 546,-126.5"/>
<polygon fill="none" stroke="#000000" points="546,-107 546,-178 646,-178 646,-107 546,-107"/>
</g>
<!-- PantallaLogin&#45;&gt;Refrescable -->
<g id="edge2" class="edge">
<title>PantallaLogin&#45;&gt;Refrescable</title>
<path fill="none" stroke="#000000" stroke-dasharray="5,2" d="M499.55,-357.37C514.39,-318.47 536.74,-262.07 559,-214 563.05,-205.25 567.64,-196.03 572.18,-187.25"/>
<polygon fill="none" stroke="#000000" points="575.33,-188.78 576.86,-178.3 569.13,-185.54 575.33,-188.78"/>
</g>
<!-- JPanel -->
<g id="node7" class="node">
<title>JPanel</title>
<polygon fill="#f2f2f2" stroke="transparent" points="271,-126 271,-159 349,-159 349,-126 271,-126"/>
<text text-anchor="start" x="278" y="-145.3" font-family="DejaVu Sans" font-size="9.00">«javax.swing»</text>
<text text-anchor="start" x="292.5" y="-135.5" font-family="DejaVu Sans" font-weight="bold" font-size="10.00">JPanel</text>
<polygon fill="none" stroke="#000000" points="271,-126 271,-159 349,-159 349,-126 271,-126"/>
</g>
<!-- PantallaLogin&#45;&gt;JPanel -->
<g id="edge1" class="edge">
<title>PantallaLogin&#45;&gt;JPanel</title>
<path fill="none" stroke="#000000" d="M447.38,-357.41C421.37,-321.44 385.33,-270.34 356,-224 344.34,-205.58 332.15,-184.12 323.24,-167.99"/>
<polygon fill="none" stroke="#000000" points="326.29,-166.26 318.41,-159.18 320.15,-169.63 326.29,-166.26"/>
</g>
<!-- Tienda -->
<g id="node8" class="node">
<title>Tienda</title>
<polygon fill="#f2f2f2" stroke="transparent" points="449.5,-130 449.5,-155 502.5,-155 502.5,-130 449.5,-130"/>
<text text-anchor="start" x="457" y="-140.5" font-family="DejaVu Sans" font-weight="bold" font-size="10.00">Tienda</text>
<polygon fill="none" stroke="#000000" points="449.5,-130 449.5,-155 502.5,-155 502.5,-130 449.5,-130"/>
</g>
<!-- PantallaLogin&#45;&gt;Tienda -->
<g id="edge13" class="edge">
<title>PantallaLogin&#45;&gt;Tienda</title>
<path fill="none" stroke="#000000" d="M441.24,-357.3C414.35,-322.89 381.51,-273.76 367,-224 356.2,-186.94 404.02,-164.32 439.75,-152.85"/>
<polygon fill="#000000" stroke="#000000" points="449.45,-149.91 441.19,-157.12 444.67,-151.36 439.88,-152.81 439.88,-152.81 439.88,-152.81 444.67,-151.36 438.58,-148.51 449.45,-149.91 449.45,-149.91"/>
<text text-anchor="start" x="367" y="-216.8" font-family="DejaVu Sans" font-size="9.00">tienda</text>
<text text-anchor="middle" x="437.54" y="-158.39" font-family="DejaVu Sans" font-size="9.00">1</text>
</g>
<!-- Rol -->
<g id="node11" class="node">
<title>Rol</title>
<polygon fill="#f2f2f2" stroke="transparent" points="1099.5,-126 1099.5,-159 1182.5,-159 1182.5,-126 1099.5,-126"/>
<text text-anchor="start" x="1107" y="-145.3" font-family="DejaVu Sans" font-size="9.00">«enumeration»</text>
<text text-anchor="start" x="1132" y="-135.5" font-family="DejaVu Sans" font-weight="bold" font-size="10.00">Rol</text>
<polygon fill="none" stroke="#000000" points="1099.5,-126 1099.5,-159 1182.5,-159 1182.5,-126 1099.5,-126"/>
</g>
<!-- PantallaLogin&#45;&gt;Rol -->
<g id="edge17" class="edge">
<title>PantallaLogin&#45;&gt;Rol</title>
<path fill="none" stroke="#000000" stroke-dasharray="5,2" d="M513.76,-357.38C539.92,-322.5 580.23,-276.88 627,-252 693.06,-216.86 719.63,-238.66 793,-224 898.85,-202.85 1021.64,-173.25 1089.4,-156.46"/>
<polygon fill="#000000" stroke="#000000" points="1099.39,-153.98 1090.77,-160.76 1094.54,-155.19 1089.69,-156.39 1089.69,-156.39 1089.69,-156.39 1094.54,-155.19 1088.6,-152.02 1099.39,-153.98 1099.39,-153.98"/>
</g>
<!-- PantallaRegistro -->
<g id="node2" class="node">
<title>PantallaRegistro</title>
<polygon fill="#ffffff" stroke="transparent" points="16.5,-310.5 16.5,-500.5 315.5,-500.5 315.5,-310.5 16.5,-310.5"/>
<text text-anchor="start" x="119.5" y="-486.5" font-family="DejaVu Sans" font-weight="bold" font-size="10.00">PantallaRegistro</text>
<text text-anchor="start" x="22" y="-464.5" font-family="DejaVu Sans" font-size="10.00">&#45; tienda: Tienda</text>
<text text-anchor="start" x="22" y="-453.5" font-family="DejaVu Sans" font-size="10.00">&#45; nav: Navegador</text>
<text text-anchor="start" x="22" y="-442.5" font-family="DejaVu Sans" font-size="10.00">&#45; txtNombre: JTextField</text>
<text text-anchor="start" x="22" y="-431.5" font-family="DejaVu Sans" font-size="10.00">&#45; txtApellido: JTextField</text>
<text text-anchor="start" x="22" y="-420.5" font-family="DejaVu Sans" font-size="10.00">&#45; txtCorreo: JTextField</text>
<text text-anchor="start" x="22" y="-409.5" font-family="DejaVu Sans" font-size="10.00">&#45; txtDireccion: JTextField</text>
<text text-anchor="start" x="22" y="-398.5" font-family="DejaVu Sans" font-size="10.00">&#45; txtTelefono: JTextField</text>
<text text-anchor="start" x="22" y="-387.5" font-family="DejaVu Sans" font-size="10.00">&#45; txtPass: JPasswordField</text>
<text text-anchor="start" x="22" y="-376.5" font-family="DejaVu Sans" font-size="10.00">&#45; txtPass2: JPasswordField</text>
<text text-anchor="start" x="22" y="-358.5" font-family="DejaVu Sans" font-size="10.00">+ PantallaRegistro(tienda: Tienda, nav: Navegador)</text>
<text text-anchor="start" x="22" y="-348.5" font-family="DejaVu Sans" font-size="10.00">+ refrescar(): void</text>
<text text-anchor="start" x="22" y="-338.5" font-family="DejaVu Sans" font-size="10.00">&#45; registrar(): void</text>
<text text-anchor="start" x="22" y="-328.5" font-family="DejaVu Sans" font-size="10.00">&#45; limpiar(): void</text>
<text text-anchor="start" x="22" y="-318.5" font-family="DejaVu Sans" text-decoration="underline" font-size="10.00">&#45; conTitulo(campo: JComponent, titulo: String): JComponent</text>
<polygon fill="#000000" stroke="#000000" points="17,-476.5 17,-476.5 316,-476.5 316,-476.5 17,-476.5"/>
<polygon fill="#000000" stroke="#000000" points="17,-369.5 17,-369.5 316,-369.5 316,-369.5 17,-369.5"/>
<polygon fill="none" stroke="#000000" points="16.5,-310.5 16.5,-500.5 315.5,-500.5 315.5,-310.5 16.5,-310.5"/>
</g>
<!-- PantallaRegistro&#45;&gt;Navegador -->
<g id="edge6" class="edge">
<title>PantallaRegistro&#45;&gt;Navegador</title>
<path fill="none" stroke="#000000" d="M254.49,-310.36C279.33,-288.42 307.63,-267.08 337,-252 470.71,-183.33 523.54,-222.86 667,-178 671.22,-176.68 675.52,-175.24 679.84,-173.73"/>
<polygon fill="#000000" stroke="#000000" points="689.29,-170.3 681.43,-177.94 684.59,-172 679.89,-173.71 679.89,-173.71 679.89,-173.71 684.59,-172 678.36,-169.48 689.29,-170.3 689.29,-170.3"/>
<text text-anchor="start" x="441" y="-216.8" font-family="DejaVu Sans" font-size="9.00">nav</text>
<text text-anchor="middle" x="677.97" y="-179.4" font-family="DejaVu Sans" font-size="9.00">1</text>
</g>
<!-- PantallaRegistro&#45;&gt;Refrescable -->
<g id="edge5" class="edge">
<title>PantallaRegistro&#45;&gt;Refrescable</title>
<path fill="none" stroke="#000000" stroke-dasharray="5,2" d="M264.21,-310.35C287.3,-290.11 312.38,-269.54 337,-252 365.2,-231.91 373.13,-227.54 405,-214 455.86,-192.4 472.49,-198 524,-178 528.11,-176.4 532.31,-174.67 536.51,-172.87"/>
<polygon fill="none" stroke="#000000" points="537.96,-176.05 545.69,-168.8 535.12,-169.65 537.96,-176.05"/>
</g>
<!-- PantallaRegistro&#45;&gt;JPanel -->
<g id="edge4" class="edge">
<title>PantallaRegistro&#45;&gt;JPanel</title>
<path fill="none" stroke="#000000" d="M137.47,-310.47C133,-277.69 134.81,-242.11 153,-214 176.67,-177.43 224.3,-159.65 260.92,-151.11"/>
<polygon fill="none" stroke="#000000" points="261.9,-154.48 270.93,-148.95 260.42,-147.64 261.9,-154.48"/>
</g>
<!-- PantallaRegistro&#45;&gt;Tienda -->
<g id="edge14" class="edge">
<title>PantallaRegistro&#45;&gt;Tienda</title>
<path fill="none" stroke="#000000" d="M232.29,-310.35C259,-276.99 291.82,-241.06 327,-214 361.59,-187.4 407.85,-167.47 439.59,-155.71"/>
<polygon fill="#000000" stroke="#000000" points="449.35,-152.18 441.48,-159.81 444.65,-153.88 439.95,-155.58 439.95,-155.58 439.95,-155.58 444.65,-153.88 438.42,-151.35 449.35,-152.18 449.35,-152.18"/>
<text text-anchor="start" x="327" y="-216.8" font-family="DejaVu Sans" font-size="9.00">tienda</text>
<text text-anchor="middle" x="438.02" y="-161.27" font-family="DejaVu Sans" font-size="9.00">1</text>
</g>
<!-- GestionUsuarios -->
<g id="node9" class="node">
<title>GestionUsuarios</title>
<polygon fill="#f2f2f2" stroke="transparent" points="725.5,0 725.5,-25 832.5,-25 832.5,0 725.5,0"/>
<text text-anchor="start" x="733" y="-10.5" font-family="DejaVu Sans" font-weight="bold" font-size="10.00">GestionUsuarios</text>
<polygon fill="none" stroke="#000000" points="725.5,0 725.5,-25 832.5,-25 832.5,0 725.5,0"/>
</g>
<!-- PantallaRegistro&#45;&gt;GestionUsuarios -->
<g id="edge22" class="edge">
<title>PantallaRegistro&#45;&gt;GestionUsuarios</title>
<path fill="none" stroke="#000000" stroke-dasharray="5,2" d="M132.43,-310.35C126.28,-278.78 125.25,-244 138,-214 164.8,-150.94 187.93,-138.08 249,-107 403.16,-28.53 611.55,-14.66 715.1,-12.99"/>
<polygon fill="#000000" stroke="#000000" points="725.39,-12.86 715.45,-17.48 720.39,-12.92 715.39,-12.98 715.39,-12.98 715.39,-12.98 720.39,-12.92 715.33,-8.49 725.39,-12.86 725.39,-12.86"/>
</g>
<!-- PantallaPerfil -->
<g id="node3" class="node">
<title>PantallaPerfil</title>
<polygon fill="#ffffff" stroke="transparent" points="648.5,-304.5 648.5,-506.5 947.5,-506.5 947.5,-304.5 648.5,-304.5"/>
<text text-anchor="start" x="760" y="-492.5" font-family="DejaVu Sans" font-weight="bold" font-size="10.00">PantallaPerfil</text>
<text text-anchor="start" x="654" y="-470.5" font-family="DejaVu Sans" font-size="10.00">&#45; tienda: Tienda</text>
<text text-anchor="start" x="654" y="-459.5" font-family="DejaVu Sans" font-size="10.00">&#45; nav: Navegador</text>
<text text-anchor="start" x="654" y="-448.5" font-family="DejaVu Sans" font-size="10.00">&#45; txtNombre: JTextField</text>
<text text-anchor="start" x="654" y="-437.5" font-family="DejaVu Sans" font-size="10.00">&#45; txtApellido: JTextField</text>
<text text-anchor="start" x="654" y="-426.5" font-family="DejaVu Sans" font-size="10.00">&#45; txtCorreo: JTextField</text>
<text text-anchor="start" x="654" y="-415.5" font-family="DejaVu Sans" font-size="10.00">&#45; txtDireccion: JTextField</text>
<text text-anchor="start" x="654" y="-404.5" font-family="DejaVu Sans" font-size="10.00">&#45; txtTelefono: JTextField</text>
<text text-anchor="start" x="654" y="-393.5" font-family="DejaVu Sans" font-size="10.00">&#45; txtRol: JTextField</text>
<text text-anchor="start" x="654" y="-382.5" font-family="DejaVu Sans" font-size="10.00">&#45; txtPassActual: JPasswordField</text>
<text text-anchor="start" x="654" y="-371.5" font-family="DejaVu Sans" font-size="10.00">&#45; txtPassNueva: JPasswordField</text>
<text text-anchor="start" x="654" y="-360.5" font-family="DejaVu Sans" font-size="10.00">&#45; txtPassNueva2: JPasswordField</text>
<text text-anchor="start" x="654" y="-342.5" font-family="DejaVu Sans" font-size="10.00">+ PantallaPerfil(tienda: Tienda, nav: Navegador)</text>
<text text-anchor="start" x="654" y="-332.5" font-family="DejaVu Sans" font-size="10.00">+ refrescar(): void</text>
<text text-anchor="start" x="654" y="-322.5" font-family="DejaVu Sans" font-size="10.00">&#45; guardar(): void</text>
<text text-anchor="start" x="654" y="-312.5" font-family="DejaVu Sans" text-decoration="underline" font-size="10.00">&#45; conTitulo(campo: JComponent, titulo: String): JComponent</text>
<polygon fill="#000000" stroke="#000000" points="649,-482.5 649,-482.5 948,-482.5 948,-482.5 649,-482.5"/>
<polygon fill="#000000" stroke="#000000" points="649,-353.5 649,-353.5 948,-353.5 948,-353.5 649,-353.5"/>
<polygon fill="none" stroke="#000000" points="648.5,-304.5 648.5,-506.5 947.5,-506.5 947.5,-304.5 648.5,-304.5"/>
</g>
<!-- PantallaPerfil&#45;&gt;Navegador -->
<g id="edge9" class="edge">
<title>PantallaPerfil&#45;&gt;Navegador</title>
<path fill="none" stroke="#000000" d="M780.35,-304.34C773.26,-264.12 765.46,-219.84 759.83,-187.94"/>
<polygon fill="#000000" stroke="#000000" points="758.09,-178.04 764.26,-187.11 758.96,-182.97 759.82,-187.89 759.82,-187.89 759.82,-187.89 758.96,-182.97 755.39,-188.67 758.09,-178.04 758.09,-178.04"/>
<text text-anchor="start" x="766" y="-216.8" font-family="DejaVu Sans" font-size="9.00">nav</text>
<text text-anchor="middle" x="767.26" y="-188.95" font-family="DejaVu Sans" font-size="9.00">1</text>
</g>
<!-- PantallaPerfil&#45;&gt;Refrescable -->
<g id="edge8" class="edge">
<title>PantallaPerfil&#45;&gt;Refrescable</title>
<path fill="none" stroke="#000000" stroke-dasharray="5,2" d="M720.48,-304.34C688.82,-263.43 653.9,-218.31 629.12,-186.3"/>
<polygon fill="none" stroke="#000000" points="631.62,-183.81 622.73,-178.04 626.09,-188.09 631.62,-183.81"/>
</g>
<!-- PantallaPerfil&#45;&gt;JPanel -->
<g id="edge7" class="edge">
<title>PantallaPerfil&#45;&gt;JPanel</title>
<path fill="none" stroke="#000000" d="M698.75,-304.2C676.41,-285.1 651.9,-266.55 627,-252 580.56,-224.85 435.77,-180.3 358.97,-157.66"/>
<polygon fill="none" stroke="#000000" points="359.64,-154.21 349.06,-154.75 357.66,-160.92 359.64,-154.21"/>
</g>
<!-- PantallaPerfil&#45;&gt;Tienda -->
<g id="edge15" class="edge">
<title>PantallaPerfil&#45;&gt;Tienda</title>
<path fill="none" stroke="#000000" d="M689.09,-304.31C668.77,-286.51 647.49,-268.42 627,-252 583.02,-216.75 569.77,-210.89 524,-178 516.33,-172.49 507.98,-166.49 500.42,-161.05"/>
<polygon fill="#000000" stroke="#000000" points="492,-155 502.75,-157.18 496.06,-157.92 500.12,-160.84 500.12,-160.84 500.12,-160.84 496.06,-157.92 497.49,-164.49 492,-155 492,-155"/>
<text text-anchor="start" x="589" y="-216.8" font-family="DejaVu Sans" font-size="9.00">tienda</text>
<text text-anchor="middle" x="507.72" y="-155.77" font-family="DejaVu Sans" font-size="9.00">1</text>
</g>
<!-- PantallaPerfil&#45;&gt;GestionUsuarios -->
<g id="edge23" class="edge">
<title>PantallaPerfil&#45;&gt;GestionUsuarios</title>
<path fill="none" stroke="#000000" stroke-dasharray="5,2" d="M830.43,-304.22C844.48,-245.83 854.05,-171.29 836,-107 828.14,-79 809.32,-51.08 795.45,-33.14"/>
<polygon fill="#000000" stroke="#000000" points="789.1,-25.18 798.85,-30.19 792.22,-29.09 795.33,-33 795.33,-33 795.33,-33 792.22,-29.09 791.81,-35.8 789.1,-25.18 789.1,-25.18"/>
</g>
<!-- Usuario -->
<g id="node10" class="node">
<title>Usuario</title>
<polygon fill="#f2f2f2" stroke="transparent" points="1226,-130 1226,-155 1284,-155 1284,-130 1226,-130"/>
<text text-anchor="start" x="1233" y="-140.5" font-family="DejaVu Sans" font-weight="bold" font-size="10.00">Usuario</text>
<polygon fill="none" stroke="#000000" points="1226,-130 1226,-155 1284,-155 1284,-130 1226,-130"/>
</g>
<!-- PantallaPerfil&#45;&gt;Usuario -->
<g id="edge20" class="edge">
<title>PantallaPerfil&#45;&gt;Usuario</title>
<path fill="none" stroke="#000000" stroke-dasharray="5,2" d="M894.57,-304.3C917.46,-284.73 942.87,-265.97 969,-252 1012.73,-228.62 1029.64,-238.68 1077,-224 1134.34,-206.23 1150.51,-205.25 1204,-178 1213.47,-173.17 1223.28,-166.89 1231.74,-161.01"/>
<polygon fill="#000000" stroke="#000000" points="1239.99,-155.11 1234.47,-164.59 1235.92,-158.02 1231.86,-160.93 1231.86,-160.93 1231.86,-160.93 1235.92,-158.02 1229.24,-157.27 1239.99,-155.11 1239.99,-155.11"/>
</g>
<!-- PantallaPerfil&#45;&gt;Rol -->
<g id="edge18" class="edge">
<title>PantallaPerfil&#45;&gt;Rol</title>
<path fill="none" stroke="#000000" stroke-dasharray="5,2" d="M898.81,-304.47C920.86,-285.56 944.86,-267.03 969,-252 997.09,-234.51 1009.35,-240.57 1038,-224 1066.83,-207.32 1096.46,-183.3 1116.5,-165.85"/>
<polygon fill="#000000" stroke="#000000" points="1124.2,-159.04 1119.69,-169.03 1120.46,-162.35 1116.71,-165.66 1116.71,-165.66 1116.71,-165.66 1120.46,-162.35 1113.73,-162.29 1124.2,-159.04 1124.2,-159.04"/>
</g>
<!-- PantallaGestionUsuarios -->
<g id="node4" class="node">
<title>PantallaGestionUsuarios</title>
<polygon fill="#ffffff" stroke="transparent" points="990.5,-260 990.5,-551 1291.5,-551 1291.5,-260 990.5,-260"/>
<text text-anchor="start" x="1072" y="-536.5" font-family="DejaVu Sans" font-weight="bold" font-size="10.00">PantallaGestionUsuarios</text>
<text text-anchor="start" x="996" y="-515.5" font-family="DejaVu Sans" text-decoration="underline" font-size="10.00">&#45; CLIENTE: String = &quot;Cliente&quot;</text>
<text text-anchor="start" x="996" y="-505.5" font-family="DejaVu Sans" text-decoration="underline" font-size="10.00">&#45; ADMINISTRADOR: String = &quot;Administrador&quot;</text>
<text text-anchor="start" x="996" y="-495.5" font-family="DejaVu Sans" font-size="10.00">&#45; tienda: Tienda</text>
<text text-anchor="start" x="996" y="-485.5" font-family="DejaVu Sans" font-size="10.00">&#45; tablaModel: DefaultTableModel</text>
<text text-anchor="start" x="996" y="-475.5" font-family="DejaVu Sans" font-size="10.00">&#45; tabla: JTable</text>
<text text-anchor="start" x="996" y="-465.5" font-family="DejaVu Sans" font-size="10.00">&#45; bordeFormulario: TitledBorder</text>
<text text-anchor="start" x="996" y="-455.5" font-family="DejaVu Sans" font-size="10.00">&#45; txtNombre: JTextField</text>
<text text-anchor="start" x="996" y="-445.5" font-family="DejaVu Sans" font-size="10.00">&#45; txtApellido: JTextField</text>
<text text-anchor="start" x="996" y="-435.5" font-family="DejaVu Sans" font-size="10.00">&#45; txtCorreo: JTextField</text>
<text text-anchor="start" x="996" y="-425.5" font-family="DejaVu Sans" font-size="10.00">&#45; txtDireccion: JTextField</text>
<text text-anchor="start" x="996" y="-415.5" font-family="DejaVu Sans" font-size="10.00">&#45; txtTelefono: JTextField</text>
<text text-anchor="start" x="996" y="-405.5" font-family="DejaVu Sans" font-size="10.00">&#45; comboRol: JComboBox&lt;String&gt;</text>
<text text-anchor="start" x="996" y="-395.5" font-family="DejaVu Sans" font-size="10.00">&#45; txtPass: JPasswordField</text>
<text text-anchor="start" x="996" y="-385.5" font-family="DejaVu Sans" font-size="10.00">&#45; correoEditando: String</text>
<text text-anchor="start" x="996" y="-375.5" font-family="DejaVu Sans" font-size="10.00">&#45; cargando: boolean</text>
<text text-anchor="start" x="996" y="-357.5" font-family="DejaVu Sans" font-size="10.00">+ PantallaGestionUsuarios(tienda: Tienda, nav: Navegador)</text>
<text text-anchor="start" x="996" y="-347.5" font-family="DejaVu Sans" font-size="10.00">+ refrescar(): void</text>
<text text-anchor="start" x="996" y="-337.5" font-family="DejaVu Sans" font-size="10.00">&#45; guardar(): void</text>
<text text-anchor="start" x="996" y="-327.5" font-family="DejaVu Sans" font-size="10.00">&#45; eliminar(): void</text>
<text text-anchor="start" x="996" y="-317.5" font-family="DejaVu Sans" font-size="10.00">&#45; cargarSeleccion(): void</text>
<text text-anchor="start" x="996" y="-307.5" font-family="DejaVu Sans" font-size="10.00">&#45; nuevo(): void</text>
<text text-anchor="start" x="996" y="-297.5" font-family="DejaVu Sans" font-size="10.00">&#45; recargarTabla(): void</text>
<text text-anchor="start" x="996" y="-287.5" font-family="DejaVu Sans" font-size="10.00">&#45; esAdmin(): boolean</text>
<text text-anchor="start" x="996" y="-277.5" font-family="DejaVu Sans" font-size="10.00">&#45; mensaje(texto: String): void</text>
<text text-anchor="start" x="996" y="-267.5" font-family="DejaVu Sans" text-decoration="underline" font-size="10.00">&#45; conTitulo(campo: JComponent, titulo: String): JComponent</text>
<polygon fill="#000000" stroke="#000000" points="991,-526.5 991,-526.5 1292,-526.5 1292,-526.5 991,-526.5"/>
<polygon fill="#000000" stroke="#000000" points="991,-368.5 991,-368.5 1292,-368.5 1292,-368.5 991,-368.5"/>
<polygon fill="none" stroke="#000000" points="990.5,-260 990.5,-551 1291.5,-551 1291.5,-260 990.5,-260"/>
</g>
<!-- PantallaGestionUsuarios&#45;&gt;Navegador -->
<g id="edge12" class="edge">
<title>PantallaGestionUsuarios&#45;&gt;Navegador</title>
<path fill="none" stroke="#000000" stroke-dasharray="5,2" d="M1111.59,-259.81C1103.08,-242.61 1092.12,-226.69 1078,-214 1041.32,-181.03 909.14,-160.73 824.77,-150.83"/>
<polygon fill="#000000" stroke="#000000" points="814.73,-149.67 825.18,-146.34 819.7,-150.24 824.67,-150.81 824.67,-150.81 824.67,-150.81 819.7,-150.24 824.15,-155.28 814.73,-149.67 814.73,-149.67"/>
</g>
<!-- PantallaGestionUsuarios&#45;&gt;Refrescable -->
<g id="edge11" class="edge">
<title>PantallaGestionUsuarios&#45;&gt;Refrescable</title>
<path fill="none" stroke="#000000" stroke-dasharray="5,2" d="M1076.93,-259.96C1063.46,-242.05 1047.58,-225.89 1029,-214 961.1,-170.54 745.63,-199.75 668,-178 663.95,-176.86 659.84,-175.51 655.75,-174.01"/>
<polygon fill="none" stroke="#000000" points="656.86,-170.69 646.28,-170.27 654.29,-177.2 656.86,-170.69"/>
</g>
<!-- PantallaGestionUsuarios&#45;&gt;JPanel -->
<g id="edge10" class="edge">
<title>PantallaGestionUsuarios&#45;&gt;JPanel</title>
<path fill="none" stroke="#000000" d="M990.4,-264.01C983.35,-259.68 976.21,-255.65 969,-252 856.61,-195.05 435.34,-179.42 428,-178 404.94,-173.53 379.89,-166.53 358.83,-159.99"/>
<polygon fill="none" stroke="#000000" points="359.74,-156.61 349.15,-156.94 357.63,-163.29 359.74,-156.61"/>
</g>
<!-- PantallaGestionUsuarios&#45;&gt;Tienda -->
<g id="edge16" class="edge">
<title>PantallaGestionUsuarios&#45;&gt;Tienda</title>
<path fill="none" stroke="#000000" d="M1021.2,-259.88C999.98,-241.73 976.7,-225.53 952,-214 779.02,-133.27 703.09,-244.09 524,-178 514,-174.31 504.21,-167.93 496.1,-161.65"/>
<polygon fill="#000000" stroke="#000000" points="488.33,-155.27 498.92,-158.14 492.2,-158.44 496.06,-161.62 496.06,-161.62 496.06,-161.62 492.2,-158.44 493.2,-165.09 488.33,-155.27 488.33,-155.27"/>
<text text-anchor="start" x="972" y="-216.8" font-family="DejaVu Sans" font-size="9.00">tienda</text>
<text text-anchor="middle" x="503.83" y="-157.05" font-family="DejaVu Sans" font-size="9.00">1</text>
</g>
<!-- PantallaGestionUsuarios&#45;&gt;GestionUsuarios -->
<g id="edge24" class="edge">
<title>PantallaGestionUsuarios&#45;&gt;GestionUsuarios</title>
<path fill="none" stroke="#000000" stroke-dasharray="5,2" d="M1291.36,-259.66C1326.72,-208.67 1344.32,-152.72 1306,-107 1247.58,-37.3 970.38,-19.52 843.13,-15.02"/>
<polygon fill="#000000" stroke="#000000" points="832.76,-14.67 842.91,-10.51 837.76,-14.84 842.76,-15 842.76,-15 842.76,-15 837.76,-14.84 842.6,-19.5 832.76,-14.67 832.76,-14.67"/>
</g>
<!-- PantallaGestionUsuarios&#45;&gt;Usuario -->
<g id="edge21" class="edge">
<title>PantallaGestionUsuarios&#45;&gt;Usuario</title>
<path fill="none" stroke="#000000" stroke-dasharray="5,2" d="M1258.95,-259.74C1264.88,-248.08 1270.02,-236.11 1274,-224 1280.53,-204.12 1273.47,-180.78 1266.17,-164.37"/>
<polygon fill="#000000" stroke="#000000" points="1261.72,-155.14 1270.12,-162.19 1263.89,-159.64 1266.06,-164.14 1266.06,-164.14 1266.06,-164.14 1263.89,-159.64 1262.01,-166.1 1261.72,-155.14 1261.72,-155.14"/>
</g>
<!-- PantallaGestionUsuarios&#45;&gt;Rol -->
<g id="edge19" class="edge">
<title>PantallaGestionUsuarios&#45;&gt;Rol</title>
<path fill="none" stroke="#000000" stroke-dasharray="5,2" d="M1180.17,-259.87C1180.63,-244.34 1179.47,-228.81 1176,-214 1172.21,-197.83 1164.13,-181.13 1156.69,-168.04"/>
<polygon fill="#000000" stroke="#000000" points="1151.46,-159.21 1160.43,-165.52 1154.01,-163.51 1156.55,-167.82 1156.55,-167.82 1156.55,-167.82 1154.01,-163.51 1152.68,-170.11 1151.46,-159.21 1151.46,-159.21"/>
</g>
<!-- Tienda&#45;&gt;GestionUsuarios -->
<g id="edge25" class="edge">
<title>Tienda&#45;&gt;GestionUsuarios</title>
<path fill="none" stroke="#000000" d="M499.81,-122.44C507.28,-117.01 515.74,-111.38 524,-107 595.25,-69.24 685.09,-40.21 736.89,-25.09"/>
<polygon fill="#000000" stroke="#000000" points="499.6,-122.6 497.23,-129.42 490.03,-129.85 492.4,-123.04 499.6,-122.6"/>
<text text-anchor="start" x="627" y="-63.8" font-family="DejaVu Sans" font-size="9.00">gestionUsuarios</text>
<text text-anchor="middle" x="724.92" y="-33.51" font-family="DejaVu Sans" font-size="9.00">1</text>
<text text-anchor="middle" x="497.51" y="-113.5" font-family="DejaVu Sans" font-size="9.00">1</text>
</g>
</g>
</svg>
